<svg xmlns="http://www.w3.org/2000/svg" version="1.1" xmlns:xlink="http://www.w3.org/1999/xlink" xmlns:svgjs="http://svgjs.dev/svgjs" width="128" height="128" viewBox="0 0 128 128"><g transform="matrix(0.8046875,0,0,0.8046875,12.58459235581806,10.759219531249997)"><svg viewBox="0 0 91 95" data-background-color="#ffffff" preserveAspectRatio="xMidYMid meet" height="133" width="128" xmlns="http://www.w3.org/2000/svg" xmlns:xlink="http://www.w3.org/1999/xlink"><g id="tight-bounds" transform="matrix(1,0,0,1,-0.07473693572275408,-0.24049999999999727)"><svg viewBox="0 0 91.10143031593682 95.481" height="95.481" width="91.10143031593682"><g><svg viewBox="0 0 91.10143031593682 95.481" height="95.481" width="91.10143031593682"><g><svg viewBox="0 0 91.10143031593682 95.481" height="95.481" width="91.10143031593682"><g id="textblocktransform"><svg viewBox="0 0 91.10143031593682 95.481" height="95.481" width="91.10143031593682" id="textblock"><g><svg viewBox="0 0 91.10143031593682 95.481" height="95.481" width="91.10143031593682"><g><svg viewBox="0 0 91.10143031593682 95.481" height="95.481" width="91.10143031593682"><g><svg xmlns="http://www.w3.org/2000/svg" xmlns:xlink="http://www.w3.org/1999/xlink" version="1.1" x="0" y="0" viewBox="7.062557719778504 4.998 85.87374379504767 90.002" enable-background="new 0 0 100 100" xml:space="preserve" height="95.481" width="91.10143031593682" class="icon-icon-0" data-fill-palette-color="accent" id="icon-0"><path d="M92.069 22.299A4.44 4.44 0 0 0 87.824 20.482 261 261 0 0 1 68.144 22.346L68.107 21.895C67.839 18.642 67.693 16.85 66.181 11.206 65.077 7.086 62.963 4.998 59.897 4.998 57.569 4.998 55.149 6.28 53.012 7.412 51.578 8.172 49.954 9.033 49.086 9.033 47.653 9.033 45.872 8.073 44.149 7.143 42.23 6.107 40.243 5.036 38.279 5.036 34.07 5.036 32.782 9.76 32.359 11.311 31.037 16.16 30.931 18.578 30.784 21.925L30.783 21.965A321 321 0 0 1 13.73 20.242 6.04 6.04 0 0 0 10.155 20.84 8 8 0 0 0 9.472 21.222C7.899 22.213 7.022 23.847 7.064 25.705 7.111 27.803 8.45 29.119 9.453 29.927 13.996 33.589 20.227 35.878 26.669 37.294A23 23 0 0 0 26.204 41.845C26.204 46.278 27.447 50.426 29.601 53.957L18.148 63.599A1.643 1.643 0 0 0 18.308 66.232L21.867 68.55A31.5 31.5 0 0 0 18.054 83.598V93.358C18.054 94.264 18.79 95 19.697 95H79.887C80.794 95 81.53 94.265 81.53 93.358V83.598A31.5 31.5 0 0 0 77.73 68.577L81.33 66.231A1.645 1.645 0 0 0 81.491 63.598L69.745 53.71C69.716 53.686 69.682 53.669 69.652 53.647A23.2 23.2 0 0 0 72.869 41.844C72.869 40.349 72.711 38.89 72.44 37.471 83.492 35.458 90.063 31.995 92.486 26.889A4.45 4.45 0 0 0 92.069 22.299M34.068 22.069C34.211 18.818 34.304 16.671 35.53 12.175 36.581 8.321 37.86 8.321 38.28 8.321 39.415 8.321 41.029 9.192 42.591 10.034 44.672 11.157 46.824 12.317 49.087 12.317 50.772 12.317 52.608 11.344 54.552 10.314 56.349 9.362 58.386 8.283 59.898 8.283 60.527 8.283 61.998 8.283 63.008 12.056 64.443 17.414 64.582 19.101 64.833 22.163 64.92 23.226 65.023 24.494 65.199 26.132A59 59 0 0 1 49.994 28.122C44.749 28.122 39.324 27.423 33.848 26.042 33.962 24.5 34.018 23.225 34.068 22.069M29.895 37.93C30.144 37.974 30.393 38.019 30.642 38.061V43.136A4.063 4.063 0 0 0 34.7 47.195H44.456A4.063 4.063 0 0 0 48.514 43.136V39.482L49.208 39.485C49.555 39.485 49.904 39.477 50.251 39.475V43.136A4.063 4.063 0 0 0 54.309 47.195H64.065A4.063 4.063 0 0 0 68.123 43.136V38.168C68.483 38.117 68.845 38.068 69.202 38.014 69.445 39.256 69.585 40.535 69.585 41.847 69.585 52.902 60.592 61.894 49.539 61.894 38.485 61.894 29.492 52.902 29.492 41.847A20 20 0 0 1 29.895 37.93M33.927 38.545C37.955 39.069 41.844 39.321 45.227 39.423V43.135A0.78 0.78 0 0 1 44.455 43.907H34.699A0.78 0.78 0 0 1 33.927 43.135zM53.536 39.409C57.342 39.289 61.14 39.012 64.837 38.587V43.136A0.783 0.783 0 0 1 64.065 43.908H54.309A0.78 0.78 0 0 1 53.537 43.136zM49.785 75.014L42.374 64.051A23.25 23.25 0 0 0 56.977 63.957zM31.513 56.646A23.5 23.5 0 0 0 36.449 61.153L48.15 78.463V91.716H43.842A1.7 1.7 0 0 0 43.646 91.384L35.646 81.118 39.248 78.677A1.642 1.642 0 0 0 39.224 75.941L21.958 64.688zM21.342 83.601C21.342 78.818 22.536 74.313 24.632 70.354L35.36 77.345 32.351 79.382A1.64 1.64 0 0 0 31.977 81.753L39.742 91.716H33.003V85.579A1.644 1.644 0 1 0 29.717 85.579V91.716H21.343zM78.245 83.601V91.716H69.06V85.579A1.643 1.643 0 1 0 65.774 85.579V91.716H59.9L67.665 81.753A1.645 1.645 0 0 0 67.291 79.382L64.282 77.345 74.962 70.385A28.2 28.2 0 0 1 78.245 83.601M77.684 64.688L60.417 75.94A1.64 1.64 0 0 0 60.393 78.676L63.995 81.117 55.996 91.383A1.6 1.6 0 0 0 55.8 91.715H51.437V78.504L62.8 61.028A23.5 23.5 0 0 0 67.787 56.358zM89.52 25.482C87.557 29.618 81.354 32.613 71.086 34.383 64.198 35.571 56.632 36.199 49.207 36.199 32.214 36.199 18.476 32.981 11.515 27.37 10.507 26.558 10.359 26.055 10.349 25.633 10.334 24.938 10.637 24.374 11.222 24.006 11.351 23.925 11.484 23.851 11.615 23.786A2.8 2.8 0 0 1 12.886 23.474C13.025 23.474 13.167 23.484 13.312 23.502A325 325 0 0 0 30.61 25.248C30.57 25.838 30.523 26.463 30.464 27.141A1.645 1.645 0 0 0 31.67 28.871C37.873 30.556 44.039 31.41 49.995 31.41H49.996C55.893 31.41 61.767 30.572 67.448 28.919A1.64 1.64 0 0 0 68.62 27.149C68.556 26.6 68.5 26.094 68.449 25.62A264 264 0 0 0 88.262 23.74C88.718 23.678 89.132 23.848 89.411 24.231 89.689 24.613 89.727 25.046 89.52 25.482" fill="#000000" data-fill-palette-color="accent"></path></svg></g></svg></g></svg></g></svg></g></svg></g><g></g></svg></g><defs></defs></svg><rect width="91.10143031593682" height="95.481" fill="none" stroke="none" visibility="hidden"></rect></g></svg></g></svg>